<?xml version="1.0" standalone="no"?>
<!DOCTYPE svg PUBLIC "-//W3C//DTD SVG 20010904//EN"
 "http://www.w3.org/TR/2001/REC-SVG-20010904/DTD/svg10.dtd">
<svg version="1.0" xmlns="http://www.w3.org/2000/svg"
 width="700.000000pt" height="700.000000pt" viewBox="0 0 700.000000 700.000000"
 preserveAspectRatio="xMidYMid meet">
<metadata>
Created by potrace 1.14, written by Peter Selinger 2001-2017
</metadata>
<g transform="translate(0.000000,700.000000) scale(0.100000,-0.100000)"
fill="#000000" stroke="none">
<path d="M5270 6993 c-93 -16 -211 -63 -289 -115 -25 -17 -215 -199 -421 -404
l-375 -374 -160 161 c-88 88 -172 167 -187 175 -35 18 -91 18 -126 0 -15 -8
-128 -116 -251 -239 -223 -224 -224 -225 -228 -274 -4 -34 0 -59 10 -79 9 -16
88 -101 176 -189 l161 -160 -1000 -1000 -1001 -1001 -67 -201 -67 -202 -76
-78 c-86 -88 -129 -151 -160 -232 -82 -220 0 -475 196 -611 150 -103 359 -117
530 -35 52 25 82 48 167 131 73 70 93 84 152 103 37 12 129 43 204 68 l137 47
999 998 999 999 171 -170 c252 -249 227 -252 542 64 315 314 312 289 65 538
-91 93 -167 170 -169 171 -1 1 168 173 375 382 387 389 417 425 469 552 70
173 66 385 -10 557 -85 192 -263 344 -470 402 -50 14 -247 25 -296 16z m245
-288 c146 -49 256 -166 294 -310 15 -57 16 -162 1 -215 -32 -123 -43 -135
-434 -528 l-371 -372 -313 313 -314 314 346 346 c190 190 367 363 392 384 98
80 275 110 399 68z m-402 -2137 l-108 -108 -724 724 -724 724 108 107 109 106
723 -723 723 -723 -107 -107z m-1123 -303 l-410 -410 -617 1 c-340 1 -621 2
-625 3 -4 0 318 325 714 722 l721 721 314 -314 313 -313 -410 -410z"/>
<path d="M1518 1894 c-16 -8 -59 -61 -97 -117 -78 -117 -231 -364 -231 -374 0
-3 -6 -14 -14 -22 -21 -24 -138 -254 -185 -366 -90 -210 -108 -362 -63 -517
55 -184 184 -339 352 -421 124 -61 198 -77 330 -73 159 6 291 54 405 149 168
140 249 310 249 522 0 101 -3 119 -37 220 -69 201 -238 519 -452 845 -45 69
-94 136 -110 148 -33 26 -105 29 -147 6z m167 -524 c31 -52 61 -103 66 -115 6
-11 30 -56 55 -100 87 -155 168 -339 181 -411 41 -237 -138 -456 -384 -468
-224 -11 -421 172 -425 396 -3 119 96 340 315 705 l91 152 22 -32 c12 -18 48
-75 79 -127z"/>
</g>
</svg>
